<svg id="Layer_1" data-name="Layer 1" xmlns="http://www.w3.org/2000/svg" viewBox="0 0 1000 1000"><defs><style>.cls-1{fill:#2bbbed;}.cls-2{fill:#1d3d4c;}</style></defs><path class="cls-1" d="M394.25,419.76l14.32.82c1.73,7.5.57,15.05,1.92,22.8H416c.25-1.81.56-3.25.64-4.69.57-10.82,1.2-21.63,1.63-32.45q2.5-63.44,4.89-126.86c.28-7.65.08-15.33.25-23a7.27,7.27,0,0,0-2.95-6.46c-1.65-1.29-2.83-3.17-4.27-4.75-.76-.82-1.51-2-2.47-2.24-2.9-.81-3.17-2.77-3.35-5.33a84.17,84.17,0,0,0-1.78-12.85c-.52-2.29-2.13-4.33-3.5-7,2.76-1.88,5.58-3.8,8.4-5.7a11.49,11.49,0,0,0,1.71-1c1.67-1.59,3.05-3.59,4.95-4.81s4.26-1.7,6.65-2.59c-.32-1-.6-1.73-.79-2.5s-.28-1.59-.45-2.63c3.58-1.95,4-5.23,4-8.89a82.54,82.54,0,0,1,1.56-14c.26,1.76.59,3.52.74,5.3.22,2.66.28,5.33.48,8,.43,5.82.44,5.81,3.94,10l-1.69,4.66c1.41.6,2.73,1.25,4.11,1.73a16.86,16.86,0,0,1,6.87,4.73c2,2.11,4.79,3.47,7.24,5.16,1.47,1,3.41,1.58,3.39,4.26-3.41,1.88-4.1,5.24-4.34,9-.29,4.45-1.07,8.87-1.68,13.59-2.7,1-5.27,2.37-6.28,5.53a2.88,2.88,0,0,1-1.34,1.44c-4.27,2.19-4.61,5.91-4.48,10.16,1,30.81,1.78,61.62,2.71,92.43q.72,23.73,1.65,47.46c.53,13.31,1.19,26.63,1.87,39.94.25,4.82,1.22,5.39,6.52,3.73.26-7.55.09-15.34.12-23.12s0-15.67,0-23.5,0-15.58,0-23.39l5.25-1.7c.21-5.05.43-10.1.66-15.72,7.92-.07,15.28-.41,23,.55.74,10.11.27,19.74.36,29.35s0,19,0,28.5v28.72c3.47,2.21,6.45,1.75,10.13.4.15-2.45.45-5.05.45-7.64q-.12-70.5-.3-141-.14-43.5-.39-87c0-1.5.09-3,0-4.49-.18-2.9,1.06-4.88,3.79-5.72s5.74-2.12,8.63-2.15c5.63-.06,11.27.56,16.89,1,4.31.34,8.61,1.12,12.92,1.22,8.32.19,16.65.23,25,0a101,101,0,0,0,13.38-1.62,32.6,32.6,0,0,1,15.78,1.28c5.21,1.73,5.95,2.77,5.88,8.32-.14,11.17-.36,22.33-.5,33.49-.2,15.16-.46,30.32-.49,45.48q-.18,75-.18,150c0,2.45.28,4.89.41,7.2,3.4,1.45,6.28,1.21,9.78.27.17-2.19.49-4.44.5-6.69q0-57.74,0-115.48v-7c2-.22,3.59-.54,5.17-.55,4.66,0,9.33.1,14,.07,1.79,0,3.57-.28,5.79-.47.15-2.29.38-4.23.38-6.16,0-13,0-26-.18-39A14.68,14.68,0,0,1,630,257c8-11.18,4.49-8.89,17.14-9.07,7.16-.1,14.33.13,21.5,0a13.56,13.56,0,0,1,8.84,2.71c2.38,1.8,4.94,3.36,7.88,5.34,0,2,0,4.12,0,6.25q-.57,59-1.12,118c0,2.11.23,4.22.38,6.75h8.73c-.23-2.2-.41-4.09-.64-6-.29-2.49-.69-4.92,1.64-6.89a5.23,5.23,0,0,0,1.33-3.08c1.18-8.75,10.16-11,16.32-9.36,1.11.3,2.13,1,3.25,1.26a5,5,0,0,0,6.68-4.65,59.82,59.82,0,0,0,0-6c-.15-12.5-.49-25-.37-37.49,0-3.93,1.25-7.85,2-11.76.11-.55.7-1,1.43-2l3,7.45c3-3.88,3.73-7.84,5.22-11.39s2.8-7.49,4.22-11.23c1.36-3.58,2.9-7.1,4.13-10.72s2.23-7.51,3.55-12.06c.5,1.24.92,1.78.89,2.3-.26,4.81,1.28,9.15,3,13.53,3.36,8.52,6.47,17.15,9.76,25.69.62,1.59.84,3.64,3.52,4.32l2.84-7.25a20.56,20.56,0,0,1,1.14,3.83c.58,11.63,1.15,23.27,1.6,34.92.17,4.32,0,8.66,0,13,0,1.63.2,3.26.33,5.19a25.24,25.24,0,0,0,4.07.72c6.83.07,13.66-.08,20.49.09,3.21.08,4.84-1.36,6-4.16,2-4.91,4.21-9.74,6.65-15.34,2.77,3.08,3.62,6.48,5.18,9.41,1.64,3.09,3,6.34,4.48,9.49s3,6.18,4.78,9.73l4.21-3.64c2.39,3.92,4.1,7.64,4.1,12.2,0,20,.11,40,.22,60,0,1.95.2,3.9.33,6.3,2.12.23,3.88.41,5.63.62,2.47.3,5,.29,7.39,1,5.15,1.54,7.58,5.46,7.25,10.95l-.37.33c-.13.1-.26.27-.4.28a33.8,33.8,0,0,1-3.47.28q-346,0-691.91-.09a7.52,7.52,0,0,1-1.65-.48c-1-3.54,1-6,3.32-8.12a13.84,13.84,0,0,1,8.13-3.47c3.71-.43,4.21-1,4.38-4.71.23-4.83.24-9.66.38-14.49.05-1.63.22-3.26.38-5.49l16.5-.42a44.79,44.79,0,0,0,.24-5.09c-.46-6.13-1.17-12.24-1.51-18.38a13.17,13.17,0,0,0-3.27-8.11,28.06,28.06,0,0,1-5-7.93c-2.09-5.8.87-9.63,7-9.31,7.73.39,15.08,2.75,22.27,5.4,14.84,5.46,29.47,11.53,44.4,16.76,12.09,4.24,24.33,8.22,36.76,11.24,23.77,5.77,47.57,5.58,71-2.11,9-2.95,17.94-6.19,27-9a36.93,36.93,0,0,1,10.24-1.82c4.49-.09,6.57,2.67,6.25,7.16-.26,3.49-2.18,6.24-4,9C392.85,411.55,392.56,413.57,394.25,419.76Zm141-15,.95-.2c.32,1.88.7,3.76,1,5.66,1.07,8.26,2.1,16.52,3.17,24.77.23,1.78.85,3.28,3.68,2.8,2.51-5,3.09-10.84,4.37-16.44s2.46-11.53,3.68-17.3a11.38,11.38,0,0,1,2.16,5.34c1.21,8.23,2.26,16.5,3.53,24.72.31,2,.16,4.36,2.09,5.77,2.15-.33,2.16-2,2.54-3.42,2-7.39,4-14.79,6-22.17.93-3.44,2-6.85,2.94-10.27l1.16.2v5.41q0,13.25,0,26.49a21.08,21.08,0,0,0,.23,4c.32,1.6,1.35,2.21,3.49,1.16.14-1.8.43-3.89.43-6q0-110.73,0-221.46c0-3.33,0-6.67,0-10,0-1.6.3-3.44-1.75-4.24-2.53,1.86-2.57,1.85-3.49,6.05-1.6,7.32-3.12,14.66-4.72,22a34.77,34.77,0,0,1-1.26,3.68c-4,.5-7.46,2.42-11.88,1.65.64-2.85,1.07-5.46,1.83-8,1.45-4.78,3.11-9.5,4.62-14.26.38-1.22.93-2.59-.62-3.49-.36,0-.93,0-1,.08-2.33,7-4.61,13.94-7.19,21.82-.8-2-1.38-3.08-1.71-4.26-1.43-5.13-2.78-10.29-4.16-15.43-.39-1.42-.55-3-3.19-3-.51,1.31-1.21,2.76-1.66,4.29-1.3,4.48-2.42,9-3.78,13.46-.91,3-2.1,5.89-3.32,9.28-3.43-.46-6.52-1.12-9.62-1.24-4-.14-5.4-2.42-6.26-5.84-2.08-8.23-4.32-16.41-6.61-24.58-.3-1.09-1.26-2-2-3.07-3.5,1.89-2.52,4.68-2.52,7q-.08,93.23,0,186.46,0,21.5,0,43c0,1.33,0,2.66.08,4s.56,2.75,2.22,2.82,2.22-1.19,2.29-2.66.08-2.66.08-4c0-9,0-18,0-27,0-1.66.17-3.32.26-5l1.26-.13q5.33,15,10.66,30.07c.63,1.78.61,4,2.76,4.74.56-.24,1.08-.31,1.13-.5Q531.19,421.11,535.21,404.75ZM769,424.4c-.63-3.59-3.27-4.31-5.3-5.57a35.17,35.17,0,0,0-1.08-4.44,3.75,3.75,0,0,0-4.34-2.56c-2,.25-2.82,1.58-3,3.41-.13,1.14-.2,2.3-.3,3.51a8.31,8.31,0,0,0-2.15,1.34c-3,3.64-7,3.59-11.3,3.58-32.82-.1-65.64-.18-98.45.06-5.82,0-10.83-.84-15-5a6.55,6.55,0,0,1-.61-.78c-.55-5.36-1.66-7.15-4.44-7.13-3,0-4.22,2-4.35,7-2.27,1.64-5.85,1.89-6.45,5.87,2.71,1.29,3.18,3.7,3,6.56a70.72,70.72,0,0,0,0,8.49,29.58,29.58,0,0,0,.94,4.46c4.88-.15,9.27,1.33,13.64.08,3.82-4.27-.27-9.69,2.65-14.43l7.62.49c.24,4.91.45,9.29.67,13.81,1.59.2,2.71.43,3.84.48a45.06,45.06,0,0,0,16.19-2.56,91.92,91.92,0,0,1,29.91-5c12.58.16,24.9,1.57,36.71,6.28,4.74,1.89,9.65,1.77,14.43.9,2-4.67-.59-9.39,1.71-14l7.59.45c0,3.9,0,7.21,0,10.52,0,2.06,1,3.61,3.13,3.86,3.94.44,7.9,1.06,12.23-.06C768.14,437.56,764.5,430.3,769,424.4ZM286.61,434c-4.8-1.64-30-3.48-34.24-2.47v6c2,.17,3.74.43,5.52.45,6,.05,12,0,18,0,2.66,0,5.32,0,8-.1C286.09,437.81,287.17,436.66,286.61,434Zm521.79-36.2c2.9-9.59,1.24-19.49-3.61-23.07-2.8,1.61-3.4,2-4,4-1.76,6.17-1.54,12.41-.74,19.06Zm-8.57,11.35c-.35,5.46-1,10.67.16,15.84,3,1.15,5.71,1.44,8.78.21a55.32,55.32,0,0,0,.14-16A10,10,0,0,0,799.83,409.19ZM743,366.52c.14-2.17.32-3.63.31-5.08,0-3.31.07-6.63-.26-9.9a5.93,5.93,0,0,0-3.89-5.36,7.19,7.19,0,0,0-4.77,7.32c0,3-.13,5.94-.08,8.91a29.76,29.76,0,0,0,.67,4.11Zm12,29.35c2.31-10.16,1.06-16.75-3.7-20.44a6.52,6.52,0,0,0-4.07,6.18c-.17,3.65-.27,7.3-.25,10.95a14.21,14.21,0,0,0,.86,3.31ZM738.9,376.4c-4.77,3.6-6.18,12.53-3,20.07l7.42-.37c0-4.7,0-8.79,0-12.87C743.35,380.07,742,377.89,738.9,376.4Zm12.23-30.32c-3,1.58-4.42,3.78-4.33,6.92.09,3.33.15,6.66.37,10a19.25,19.25,0,0,0,1.12,3.7l7.33-.76c0-5.17.18-9.79-.07-14.39C755.41,349.1,753.8,347.29,751.13,346.08ZM244.5,437.32a26.44,26.44,0,0,0-.08-5.17c-.25-1.14-1-2.72-2-3.06-3.65-1.33-7.46-2.24-11.41-3.37a16.12,16.12,0,0,0-.5,11.85A37.6,37.6,0,0,0,244.5,437.32ZM648.76,287.69v0c3.48,0,7,0,10.43,0,1.84,0,4,0,4.06-2.51s-2.34-2.33-4.1-2.34c-6.62,0-13.24,0-19.86,0a5.57,5.57,0,0,0-2.44.24c-.77.4-1.91,1.38-1.81,1.89a4.1,4.1,0,0,0,1.87,2.43,6.42,6.42,0,0,0,2.91.3C642.8,287.71,645.78,287.69,648.76,287.69Zm-13.14,6.77c-.76,3.58-.52,4.21,2.48,4.27,7.3.16,14.61.12,21.92.09a8.22,8.22,0,0,0,2.33-.76,10,10,0,0,0,.11-2.11,1.76,1.76,0,0,0-.77-1.21,5.59,5.59,0,0,0-2.34-.65q-11-.13-21.93-.12A6.75,6.75,0,0,0,635.62,294.46Zm27.94-23a11.85,11.85,0,0,0-2.76-.68c-7.65,0-15.3,0-22.95.07-.49,0-1.14-.11-1.46.15-.8.66-2,1.54-2,2.27s1.24,1.8,2.15,2.15a9.61,9.61,0,0,0,3.45.2c4.82-.07,9.64-.18,14.46-.27,2.16,0,4.33,0,6.48-.13S664.36,274.09,663.56,271.41Zm-27.81,39.44c1.64.13,3.26.34,4.87.35,3.83,0,7.65,0,11.48-.07,2.66,0,5.33.05,8-.15s2.79-.62,2.31-4.45a179.33,179.33,0,0,0-25.17.27C635.41,306.93,634.73,308.29,635.75,310.85ZM755,335.79c1.71-8.58.66-12.88-3.65-16.26-4.44,2.63-5.68,9.93-2.64,16.26Zm-16-16.38c-4.26,3.25-5.82,10.85-3.38,16.38H742C744.23,329.56,743,323.06,739,319.41Zm38.21,89.18c-.47,5.66-.76,10.85.24,16.3h6a49.54,49.54,0,0,0,0-16.3ZM783,397.68c2.13-6.38.84-13.37-2.74-16.33-3.82,3-5.19,11-2.63,16.33ZM308.51,438v.12h4A66.13,66.13,0,0,0,320,438c.8-.1,1.46-1.39,2.18-2.13-.66-.63-1.29-1.3-2-1.87-.21-.18-.64-.13-1-.13-7,0-14-.06-20.95-.05-1.37,0-2.82.23-2.89,2S296.65,438,298,438C301.53,438.05,305,438,308.51,438Zm20.48-.18a98.78,98.78,0,0,0,18.75-.06c.59-.06,1.64-1.61,1.46-2.12-.31-.89-1.39-2.11-2.18-2.14-5.46-.17-10.93-.19-16.39,0C328.54,433.57,327.84,435,329,437.83Zm119.41-218,.3-1.43a14.11,14.11,0,0,0-5.94-1.71,98.88,98.88,0,0,0-24.85,0,17.72,17.72,0,0,0-3.87.91c-.55.2-.92.93-1.37,1.42,4.28.57,8.2.14,12.12-.07s8-.44,11.93-.28S444.5,219.43,448.4,219.85ZM205,412.55c-.75,2.62-1.51,21.06-.81,23.29.28.87,1.24,1.54,2.22,2.67.82-1.42,1.68-2.22,1.69-3q.19-9.66.06-19.32A3.29,3.29,0,0,0,205,412.55Zm170.46,21.32a71.76,71.76,0,0,0-19.8,0c.15,3.68.25,4.09,2.5,4.17,5,.16,9.91.12,14.86,0C374.92,438,376.12,437,375.45,433.87Zm234.6-64.45c.51.67.86,1.59,1.27,1.61,3.92.24,7.85.39,11.77.37a2.23,2.23,0,0,0,1.38-1.71c-.11-.81-.9-2.16-1.45-2.18-3.76-.14-7.54-.06-11.31.13C611.16,367.67,610.67,368.73,610.05,369.42Zm.29-11.48c-.1,2.26,1,2.94,2.43,3,3.62.07,7.24.07,10.86,0a2.22,2.22,0,0,0,2.48-2.47c-1.08-2.35-3.3-1.86-5.15-1.74C617.37,357,613.48,355.65,610.34,357.94ZM375.61,426.21c.67-2.82-.4-3.8-2.13-3.67-3.93.27-7.85.76-11.75,1.3-.66.09-1.23.88-2.68,2C365.19,427.49,370.35,427.08,375.61,426.21ZM662.1,369.83c.52-2.14-.19-3.28-1.74-3.36a68.07,68.07,0,0,0-8.92.12,2,2,0,0,0-.13,4C654.88,370.92,658.53,371.54,662.1,369.83Zm-132.8-149c-1.09-4.7-2.22-9.58-3.34-14.46l-.55.15-2.34,14.69C525.48,222.74,527.24,222.85,529.3,220.81Zm80.82,125.77c1.19,3.15,1.19,3.32,2.4,3.36,3.31.1,6.63.12,9.94,0,1.46-.05,2.51-.81,2.18-3.4C620.11,345.32,615.4,345.61,610.12,346.58ZM656,382.94a30,30,0,0,0,4.37-.42,2.36,2.36,0,0,0,1.42-1.7c.06-.65-.62-1.94-1-2a95.89,95.89,0,0,0-9.74,0c-.47,0-1.34,1.33-1.21,1.83a3.14,3.14,0,0,0,1.73,2A19.91,19.91,0,0,0,656,382.94Zm-38.56-54.8v0a28.12,28.12,0,0,0,5-.09,2.68,2.68,0,0,0,1.74-1.9c0-.69-1-2-1.56-2a92.52,92.52,0,0,0-10.4,0c-.67,0-1.92,1.5-1.79,1.83a3.75,3.75,0,0,0,2.11,2.13A24,24,0,0,0,617.4,328.14Zm-8,8.31c1.29,1.32,1.8,2.3,2.35,2.32a96.52,96.52,0,0,0,10.89.08c1.6-.11,2-1.56.83-3.49C619.29,335,614.84,334.2,609.44,336.45Zm52.44,10.67c1.11-2.49.63-3.86-.91-4a64.7,64.7,0,0,0-9.34-.13c-.67,0-1.92,1.39-1.79,1.82.26.89,1.21,2.16,2,2.21C655.19,347.25,658.6,347.12,661.88,347.12Zm.07-16.24c-3.37,0-6.78-.14-10.16.1-.74,0-1.64,1.35-1.94,2.24-.12.35,1.19,1.66,1.9,1.71a63.47,63.47,0,0,0,8.83,0C662.38,334.82,663.09,333.57,662,330.88Zm0-12.06c-4-.12-8.08-1-11.91.61-.85,2.46.21,3.53,2.2,3.62a63.73,63.73,0,0,0,7.94-.07C662.2,322.83,663.23,321.72,662,318.82Zm0,39.67c-.1-3-.19-3.48-1.53-3.57a69.4,69.4,0,0,0-8.89,0,2.64,2.64,0,0,0-1.71,1.94,2.68,2.68,0,0,0,1.53,2.1C654.94,359.38,658.55,360,662,358.49Zm-218.41-116c.13-.41.26-.82.38-1.23-.45-.37-.9-1-1.36-1-8.08-.07-16.16-.09-24.25,0-.48,0-1,.93-1.43,1.42l.31.94A67.73,67.73,0,0,1,443.58,242.46Z"/><path class="cls-1" d="M395.87,383.53c-11.07-.09-20.8,4.55-30.92,7.75-6.66,2.11-13.4,3.94-20.12,5.86a21.59,21.59,0,0,1-2.77.38,34.33,34.33,0,0,1-.61-4c-.86-23.14-.33-70.64.9-75,1.68,0,3.45-.09,5.22,0,4.55.28,5.11-.2,5.33-4.9.08-1.64.16-3.27.25-5.25a31.31,31.31,0,0,1,4.07-.55c7.66,0,15.31.16,23,.11a9.91,9.91,0,0,1,6.82,2.5c3.18,2.68,6.48,5.21,9.7,7.78C397.69,322.94,397.11,378.74,395.87,383.53ZM378.81,336.8c-.29-3.23-2-3.44-3.69-3.48-3.49-.08-7-.07-10.46,0a20.5,20.5,0,0,0-4.44.39c-.63.15-1.58,1.14-1.51,1.62a4,4,0,0,0,1.51,2.19,3.43,3.43,0,0,0,1.93.27c4.32,0,8.64.08,13,0A17.69,17.69,0,0,0,378.81,336.8Zm-1.1,6.74a94.46,94.46,0,0,0-18.22.22c-1.19,2.68-.41,4,1.69,4.07,4.79.15,9.59.12,14.38,0C377.53,347.78,378.58,346.65,377.71,343.54Zm-9.19,14.33v0a58,58,0,0,0,7-.1c.85-.1,1.56-1.3,2.34-2-.79-.7-1.56-2-2.38-2-4.65-.18-9.32-.16-14,0-.8,0-1.55,1.33-2.32,2,.79.68,1.51,1.85,2.37,1.95A57.79,57.79,0,0,0,368.52,357.87Zm-8.76,9.83a48.46,48.46,0,0,0,15.45.14c1.83-.22,1.94-2,.52-4-4.64,0-9.6-.12-14.55.06C359.28,364,358.76,365.38,359.76,367.7Z"/><path class="cls-1" d="M308.09,362.29l2.44,5h12.85c1.36,4.23,1.84,27.7.79,33.19-12.19,2.27-24.21.47-36-2.08-1.47-4.79-1.48-25.65-.06-30.75.8-.17,1.74-.39,2.69-.55s1.65-.18,2.68-.29c.49-.76,1-1.56,1.55-2.37s.86-1.39,1.54-2.53c1.69,0,3.49,0,5.3,0C303.81,362,305.79,362.16,308.09,362.29Z"/><path class="cls-1" d="M528.34,274.6a27.47,27.47,0,0,1,11.08.49c2.36,6.2,4,12.17,2.35,18.54a7.92,7.92,0,0,0-.1,2.48,7.63,7.63,0,0,0,.74,1.78l3.39-.27a11,11,0,0,0,.4-1.84,5.35,5.35,0,0,0-.21-1.48,39.88,39.88,0,0,1-.07-19.15c3-1.46,6.07-.52,9.71-.42-1.06,13.52-4.38,26.33-6.51,39.23a16.53,16.53,0,0,1-11.57.45C534.51,301.28,531.46,288.08,528.34,274.6Z"/><path class="cls-1" d="M549.54,383.69c-.24-9.49-3.26-18.5-4.21-27.94a24.27,24.27,0,0,1,11.06-.55c1.08,4.3-.67,17.13-4.35,32.53l-1.75-.35c-.14,2.47-.28,4.92-.41,7.23-3.45,1-6.94.88-11.93-.26-1.14-4.63,0-13,4.88-34.36C545.88,368.4,546.4,376.43,549.54,383.69Z"/><path class="cls-1" d="M513.67,313.83c4-12.58,7.75-24.33,11.49-36.08l1.22.07c2,12.17,6.18,23.88,7.84,36.89C527.12,315.24,520.85,314.1,513.67,313.83Z"/><path class="cls-1" d="M513.69,392.91c3.21-11.63,8.38-22.57,12.51-35.17,3,6.58,3.15,12.56,4.21,18.26s2.93,11.56,2.63,17.53C528.11,394.62,517.53,394.32,513.69,392.91Z"/><path class="cls-1" d="M525.41,430.9c-3.34-11.92-8.28-22-11.6-32.73,3.91-1.46,11.78-1.68,18.15-.73C532.9,400.91,529.1,421,525.41,430.9Z"/><path class="cls-1" d="M522.94,270.76l-11.22-1.45c-1.19-5.24-1.05-32.6,0-36.55,4.17-.07,4.71.12,5.54,3.74,1.51,6.62,2.79,13.3,4.15,20,.53,2.6,1.12,5.2,1.44,7.83A59.15,59.15,0,0,1,522.94,270.76Z"/><path class="cls-1" d="M570.4,313.92H552.59c1.39-11.36,4.3-22.26,6.35-33.47C563,291.4,567.35,302,570.4,313.92Z"/><path class="cls-1" d="M571.78,269a18.87,18.87,0,0,1-11.41.85,33.59,33.59,0,0,1,.34-4.93c2-9.21,4.16-18.4,6.29-27.58.53-2.27,1.13-4.56,4.43-4.95a8.72,8.72,0,0,1,.91,2.62c0,10.77,0,21.54-.06,32.32A7,7,0,0,1,571.78,269Z"/><path class="cls-1" d="M560.45,361.86l8.42,32.64c-4.76.91-9.28.62-14.34.68-.18-1.78-.65-3.25-.41-4.58,1.68-9.57,3.5-19.11,5.28-28.65Z"/><path class="cls-1" d="M554.9,398.46h14.61c-2,11-5.2,21.22-8.5,32.22-2.6-3.66-1.8-7.27-2.62-10.46-.91-3.51-1.17-7.18-1.73-10.78C556.12,406,555.57,402.63,554.9,398.46Z"/><path class="cls-1" d="M511.45,320.1c5.93,8.73,13.08,25.83,13.26,31-4.3.65-8.64.14-13.62.3C510.79,340.71,510.93,330.39,511.45,320.1Z"/><path class="cls-1" d="M511.75,272.7a16.66,16.66,0,0,1,10.87,1.91c-.08,3.27-7.22,26.1-10.92,34.91C510.57,305.47,510.6,276.82,511.75,272.7Z"/><path class="cls-1" d="M526.3,342.5c-.63-1.1-1-1.65-1.27-2.23q-5.24-11-10.44-22c2.71-1.08,10.84-1,17.53.18-.51,7.33-2.85,14.37-4.33,21.55A10.22,10.22,0,0,1,526.3,342.5Z"/><path class="cls-1" d="M571.68,308.7a338.7,338.7,0,0,1-10.75-34.61c3.58-2,7-2,10.36-1.72C572.69,275.85,573.07,300.9,571.68,308.7Z"/><path class="cls-1" d="M511.23,387.55V354.46H524C520.44,366.09,515.75,376.74,511.23,387.55Z"/><path class="cls-1" d="M542.75,429.82c-2.11-10.85-3.87-20.88-5-31.45H548.9C550.19,403,546.33,423.61,542.75,429.82Z"/><path class="cls-1" d="M560,343.65c-2.35-4.31-6.16-19-6.66-25.5,4.9-1.17,9.93-.85,15.82-1C566,326.27,563.06,334.74,560,343.65Z"/><path class="cls-1" d="M571.92,392.26c-2.73-5.08-9.53-32.65-9.23-37.25h8.65C572.62,358.37,573.06,383,571.92,392.26Z"/><path class="cls-1" d="M520,234c4.93,1.29,9.08.42,13.07,3.23L526.54,263h-1.16A166.79,166.79,0,0,1,520,234Z"/><path class="cls-1" d="M534.61,322.84c2.79,6.75,6.56,24.34,6.14,28.67-4,.71-7.92,1.14-12.52-.63Z"/><path class="cls-1" d="M527.9,271c1.37-9.56,4.28-18.25,6.4-28.24,2.57,6.37,6,24.5,5.53,28.56C536.18,272.33,532.51,272,527.9,271Z"/><path class="cls-1" d="M561,351.36c3.73-11,6.06-21.41,11.18-31V351C568.5,352.52,565.19,352,561,351.36Z"/><path class="cls-1" d="M542.59,265.63c-2.29-9.27-5.45-18.32-6-28.7l11.84,1.42A162.14,162.14,0,0,1,542.59,265.63Z"/><path class="cls-1" d="M529.39,354.42l10.11.48c1,4.59-2.43,26.13-4.82,30.13C532.92,374.85,531.22,365,529.39,354.42Z"/><path class="cls-1" d="M546.46,352.32c-.26-9.43,2.39-17.94,3.81-27.42,2.94,2.88,2.51,6,3.28,8.71.88,3,1.4,6.14,2.05,9.22.6,2.87,1.17,5.76,1.77,8.73C553.78,353.28,550.57,352.78,546.46,352.32Z"/><path class="cls-1" d="M551.35,244.69c2,8.72,4.45,17.35,4.68,26.81H545.88C545.32,267.74,548.55,250.53,551.35,244.69Z"/><path class="cls-1" d="M537.78,318.53a19.15,19.15,0,0,1,9.64-.28c.85,4-1.66,22-3.79,27.13-2.37-2.61-1.87-5.94-2.77-8.77a62.56,62.56,0,0,1-1.86-8.74C538.48,324.84,536.81,322,537.78,318.53Z"/><path class="cls-1" d="M552.69,237.08l12.17-3.25c-1.37,10.18-3.92,19.09-6,28.11l-1.26-.07Z"/><path class="cls-1" d="M548,234.18c-4.63,1.23-6.68,1.18-10.91-.29,1-6.59,4.13-12.65,5.87-19.25C545.83,220.94,546.9,227.57,548,234.18Z"/><path class="cls-1" d="M516.47,230.24h-5.1c-.8-5.47-.4-10.64-.19-15.8l1-.18C513.52,219.32,514.88,224.38,516.47,230.24Z"/><path class="cls-1" d="M568.9,229.44l2.68-13.77.66,0c0,4.08.12,8.17,0,12.25C572.22,229.42,571.33,230.36,568.9,229.44Z"/><path class="cls-1" d="M645.37,441.14c0-3.87-.28-6.64.09-9.32.3-2.22,2.23-3.16,4.41-3.19a5.74,5.74,0,0,1,5.39,3.63,4.21,4.21,0,0,1-2.29,5.35C650.84,438.76,648.59,439.66,645.37,441.14Z"/><path class="cls-1" d="M729.12,430.57a7.79,7.79,0,0,1,8.38.45,16.77,16.77,0,0,1,0,9.47C729.62,438.93,727.81,436.8,729.12,430.57Z"/><path class="cls-1" d="M660.12,434.92c-.67-4.56-.23-5.51,2.89-5.71,2.65-.17,5.55-.69,8,2C667.62,433.42,663.91,433.66,660.12,434.92Z"/><path class="cls-1" d="M714.91,431.73c1.09-2.77,3.05-2.66,5-2.24s3.74,1.24,3.67,4.06C720.36,434.2,717.83,432.58,714.91,431.73Z"/><path class="cls-1" d="M697.64,429.64a26.31,26.31,0,0,1,11.58.27A22.08,22.08,0,0,1,697.64,429.64Z"/><path class="cls-1" d="M685.76,430.19l-6.54.37c2.06-2,4.33-1.75,6.6-1.42Z"/><path class="cls-2" d="M390.71,495.14,308.82,634.46v82.6c0,11-3.54,14.89-14.89,14.89H253.87c-11.34,0-15.24-3.9-15.24-14.89v-82.6L157.09,495.14c-5-8.16-3.55-14.89,7.44-14.89h42.54c17.73,0,22.69.7,29.43,13.11l37.93,72.32,39-72.32c6.74-12.41,11.7-13.11,29.07-13.11h40.77C393.91,480.25,395.32,487,390.71,495.14Z"/><path class="cls-2" d="M638.69,495.14,556.8,634.46v82.6c0,11-3.54,14.89-14.89,14.89H501.85c-11.34,0-15.24-3.9-15.24-14.89v-82.6L405.07,495.14c-5-8.16-3.55-14.89,7.44-14.89h42.54c17.73,0,22.69.7,29.43,13.11l37.93,72.32,39-72.32c6.74-12.41,11.7-13.11,29.07-13.11h40.77C641.89,480.25,643.3,487,638.69,495.14Z"/><path class="cls-2" d="M740.61,474.93c54.6,0,88.63,22.33,103.52,62,3.54,10.28,1.06,15.6-9.57,19.14l-37.94,13.47c-11,3.19-15.24,1.42-19.14-9.57-6.38-16-17-23-36.87-23-28,0-39,12-39,36.87v64.52c0,24.82,11,36.87,39,36.87,19.85,0,31.2-7.8,36.87-23,4.25-11,8.51-13.48,19.14-9.58l37.94,13.48c10.63,3.54,13.11,8.86,9.57,19.14-14.89,39.71-48.92,62-103.52,62-69.84,0-109.19-37.93-109.19-99.26V574.19C631.42,512.86,670.77,474.93,740.61,474.93Z"/><path class="cls-2" d="M347.36,791.7c0,10.87-6.95,17-17.62,17h-8.46v11.76c0,2.14-.69,2.89-2.89,2.89h-7.77c-2.21,0-3-.75-3-2.89V777.39c0-2.13.75-2.89,3-2.89h19C340.34,774.5,347.36,780.76,347.36,791.7Zm-14.11-.07a4.79,4.79,0,0,0-5.16-5.09h-6.81v10.12h6.81C331.33,796.66,333.25,794.66,333.25,791.63Z"/><path class="cls-2" d="M405.63,791.08c0,6.75-2.75,11.56-7.43,14.18a17.73,17.73,0,0,1,1.86,3L406.25,820c1,1.86.48,3.37-1.79,3.37H397c-3.64,0-5.23-.89-6.33-3.3l-4.4-9.43c-1.17-2.34-2.34-3.5-5.16-3.5h-1.58v13.34c0,2.14-.69,2.89-2.89,2.89h-7.78c-2.2,0-2.95-.75-2.95-2.89V777.39c0-2.13.75-2.89,2.95-2.89H388.5C398.89,774.5,405.63,780.42,405.63,791.08ZM387,786.54h-7.43v9.08H387c2.89,0,4.54-1.78,4.54-4.6S390,786.54,387,786.54Z"/><path class="cls-2" d="M459.92,777.39v6.19c0,2.21-.76,3-3,3H438.8v6.13h14.51c2.21,0,3,.75,3,2.89v6.19c0,2.2-.75,3-3,3H438.8v6.6h18.78c2.13,0,2.89.69,2.89,2.89v6.26c0,2.14-.76,2.89-2.89,2.89H428.13c-2.2,0-2.95-.75-2.95-2.89V777.39c0-2.13.75-2.89,2.95-2.89H457C459.16,774.5,459.92,775.26,459.92,777.39Z"/><path class="cls-2" d="M499,773.47c10.6,0,17.2,4.34,20.09,12,.69,2,.21,3-1.86,3.72l-7.36,2.61c-2.13.62-3,.28-3.71-1.86-1.24-3.09-3.31-4.47-7.16-4.47-5.43,0-7.57,2.34-7.57,7.16v12.52c0,4.81,2.14,7.15,7.57,7.15,3.85,0,6.06-1.51,7.16-4.47.82-2.13,1.65-2.61,3.71-1.86l7.36,2.62c2.07.69,2.55,1.72,1.86,3.71-2.89,7.71-9.49,12-20.09,12-13.55,0-21.19-7.36-21.19-19.26V792.74C477.81,780.83,485.45,773.47,499,773.47Z"/><path class="cls-2" d="M578.4,823.35H571c-3.58,0-4.61-.75-5.16-2.89l-1.58-5H549.37l-1.59,5c-.68,2.14-1.58,2.89-5,2.89h-7.22c-2.14,0-2.55-1-1.86-2.82l15.82-43.62c.69-2,1.59-2.41,3.58-2.41h7.85c2,0,2.89.48,3.57,2.27l15.9,43.76C581.08,822.39,580.47,823.35,578.4,823.35ZM557.07,787h-.68a36.82,36.82,0,0,1-1.31,9.56l-2.55,8.12h8.6l-2.54-8.05A43.24,43.24,0,0,1,557.07,787Z"/><path class="cls-2" d="M615.69,773.47c10.19,0,16,3,19.2,9.63,1,2,.41,3-1.65,3.86l-6.88,2.95c-1.86.83-2.62.55-3.72-1.44-1.3-2.61-3.78-3.58-6.95-3.58-4.67,0-6.53,1.17-6.53,3.58,0,3,4.06,3.58,9,4.2,8,1.1,18.3,3,18.3,16,0,10.11-9.15,15.68-21.32,15.68-10.26,0-17.41-3.5-20-10.66-.75-2.06-.13-3,1.86-3.78l6.47-2.34c2.06-.69,3-.48,4.06,1.51,1.24,2.41,3.92,3.65,7.77,3.65,4.61,0,7.36-1,7.36-3.93,0-2.68-3.5-3.43-8-4.05-8.05-1.11-19.33-2.55-19.33-15.9C595.26,779.8,602.55,773.47,615.69,773.47Z"/><path class="cls-2" d="M692.34,777.39v6.19c0,2.21-.75,3-3,3H679.2v33.92c0,2.14-.76,2.89-3,2.89h-7.77c-2.2,0-2.89-.75-2.89-2.89V786.54H655.33c-2.2,0-2.89-.75-2.89-3v-6.19c0-2.13.69-2.89,2.89-2.89h34C691.59,774.5,692.34,775.26,692.34,777.39Z"/><rect class="cls-2" x="154.36" y="791.93" width="134.64" height="14" rx="7"/><rect class="cls-2" x="711" y="791.93" width="134.64" height="14" rx="7"/></svg>